<svg width="343" height="121" viewBox="0 0 343 121" fill="none" xmlns="http://www.w3.org/2000/svg">
<path d="M110.776 97L122.849 24.2727H138.226L128.283 84.3224H159.462L157.331 97H110.776ZM194.964 24.2727L182.89 97H167.514L179.588 24.2727H194.964ZM268.446 24.2727L256.372 97H243.091L219.121 51.2259H218.553L210.918 97H195.541L207.615 24.2727H221.109L244.973 70.0114H245.577L253.141 24.2727H268.446ZM269.076 97L281.15 24.2727H296.527L291.235 56.3395H292.194L323.657 24.2727H342.088L309.808 56.8366L330.333 97H311.939L297.095 67.0994L287.933 76.4034L284.453 97H269.076Z" fill="black"/>
<path d="M1.77557 97L13.8494 24.2727H42.9688C48.3191 24.2727 52.6515 25.0658 55.9659 26.652C59.304 28.2382 61.6359 30.4399 62.9616 33.2571C64.2874 36.0507 64.6425 39.2704 64.027 42.9162C63.5298 45.7571 62.5237 48.2429 61.0085 50.3736C59.517 52.5043 57.6705 54.2562 55.4688 55.6293C53.267 57.0024 50.8759 57.973 48.2955 58.5412L48.1534 59.2514C50.8996 59.3698 53.3736 60.151 55.5753 61.5952C57.777 63.0156 59.4223 65.0279 60.5114 67.6321C61.6004 70.2363 61.849 73.3258 61.2571 76.9006C60.6179 80.7595 59.0909 84.2041 56.6761 87.2344C54.2614 90.241 51.0417 92.6203 47.017 94.3722C43.0161 96.1241 38.2931 97 32.848 97H1.77557ZM19.2827 84.429H31.8182C36.0795 84.429 39.3348 83.6004 41.5838 81.9432C43.8329 80.286 45.1823 78.0961 45.6321 75.3736C45.9399 73.3613 45.7386 71.5857 45.0284 70.0469C44.3419 68.508 43.17 67.3007 41.5128 66.4247C39.8793 65.5488 37.8078 65.1108 35.2983 65.1108H22.4432L19.2827 84.429ZM24.2188 54.706H35.6179C37.7012 54.706 39.6307 54.339 41.4062 53.6051C43.2055 52.8475 44.6851 51.7822 45.8452 50.4091C47.0289 49.0123 47.7746 47.367 48.0824 45.473C48.5085 42.8215 47.9167 40.7027 46.3068 39.1165C44.7206 37.5066 42.2349 36.7017 38.8494 36.7017H27.2017L24.2188 54.706Z" fill="black"/>
<g filter="url(#filter0_d_23_79)">
<path d="M77.253 71.5178H63.9729C63.9729 71.5178 60.8717 71.4224 59.0695 70.7006C55.2373 69.1656 52.7943 66.8058 52.123 62.7325C51.6013 59.5666 52.7481 56.4401 55.392 53.5386C56.2666 52.5788 57.786 51.0801 59.0695 50.8826C67.0376 49.6568 71.4935 50.0654 80.1134 50.0654C84.4038 50.0654 87.2135 51.4918 89.5116 54.7645C90.8317 56.6446 91.5547 61.3024 91.5547 61.3024M80.7263 61.3024C80.7263 61.3024 81.6178 65.5102 83.3823 67.4316C85.3615 69.5869 87.2109 70.4296 90.1245 70.7006C98.9098 71.5178 111.577 70.7006 112.394 70.7006C113.211 70.7006 116.439 68.838 117.911 66.6144C119.382 64.3908 120.3 61.5677 119.341 57.8291C118.657 55.1642 118.089 53.5265 115.867 51.9042C113.631 50.2709 109.33 50.0654 109.33 50.0654H94.415" stroke="#29AAE3" stroke-width="8" stroke-linecap="round"/>
</g>
<defs>
<filter id="filter0_d_23_79" x="43.9985" y="45.9989" width="83.7363" height="37.5189" filterUnits="userSpaceOnUse" color-interpolation-filters="sRGB">
<feFlood flood-opacity="0" result="BackgroundImageFix"/>
<feColorMatrix in="SourceAlpha" type="matrix" values="0 0 0 0 0 0 0 0 0 0 0 0 0 0 0 0 0 0 127 0" result="hardAlpha"/>
<feOffset dy="4"/>
<feGaussianBlur stdDeviation="2"/>
<feComposite in2="hardAlpha" operator="out"/>
<feColorMatrix type="matrix" values="0 0 0 0 0 0 0 0 0 0 0 0 0 0 0 0 0 0 0.25 0"/>
<feBlend mode="normal" in2="BackgroundImageFix" result="effect1_dropShadow_23_79"/>
<feBlend mode="normal" in="SourceGraphic" in2="effect1_dropShadow_23_79" result="shape"/>
</filter>
</defs>
</svg>
